<mxfile host="app.diagrams.net" modified="2022-05-18T01:54:37.695Z" agent="5.0 (Macintosh; Intel Mac OS X 10_15_7) AppleWebKit/537.36 (KHTML, like Gecko) Chrome/101.0.4951.64 Safari/537.36" etag="n_5Bj-RPUMo2PXncIfs6" version="18.0.4" type="github">
  <diagram id="e0VjzzQqfvuQHf2shUBU" name="第 1 页">
    <mxGraphModel dx="2286" dy="850" grid="0" gridSize="10" guides="1" tooltips="1" connect="1" arrows="1" fold="1" page="0" pageScale="1" pageWidth="827" pageHeight="1169" math="0" shadow="0">
      <root>
        <mxCell id="0" />
        <mxCell id="1" parent="0" />
        <mxCell id="EklKHTHSB251qFAoLmv4-3" style="edgeStyle=orthogonalEdgeStyle;rounded=0;orthogonalLoop=1;jettySize=auto;html=1;entryX=0;entryY=0.5;entryDx=0;entryDy=0;" parent="1" source="EklKHTHSB251qFAoLmv4-1" target="EklKHTHSB251qFAoLmv4-2" edge="1">
          <mxGeometry relative="1" as="geometry" />
        </mxCell>
        <mxCell id="EklKHTHSB251qFAoLmv4-8" style="edgeStyle=orthogonalEdgeStyle;rounded=0;orthogonalLoop=1;jettySize=auto;html=1;entryX=1;entryY=0.75;entryDx=0;entryDy=0;" parent="1" source="EklKHTHSB251qFAoLmv4-1" target="EklKHTHSB251qFAoLmv4-4" edge="1">
          <mxGeometry relative="1" as="geometry">
            <Array as="points">
              <mxPoint x="-10" y="165" />
              <mxPoint x="-10" y="165" />
            </Array>
          </mxGeometry>
        </mxCell>
        <mxCell id="EklKHTHSB251qFAoLmv4-1" value="发起提交任务" style="rounded=0;whiteSpace=wrap;html=1;" parent="1" vertex="1">
          <mxGeometry x="20" y="120" width="120" height="60" as="geometry" />
        </mxCell>
        <mxCell id="EklKHTHSB251qFAoLmv4-11" value="" style="edgeStyle=orthogonalEdgeStyle;rounded=0;orthogonalLoop=1;jettySize=auto;html=1;" parent="1" source="EklKHTHSB251qFAoLmv4-2" target="EklKHTHSB251qFAoLmv4-10" edge="1">
          <mxGeometry relative="1" as="geometry" />
        </mxCell>
        <mxCell id="EklKHTHSB251qFAoLmv4-31" style="edgeStyle=orthogonalEdgeStyle;rounded=0;orthogonalLoop=1;jettySize=auto;html=1;entryX=0.317;entryY=0.008;entryDx=0;entryDy=0;entryPerimeter=0;" parent="1" source="EklKHTHSB251qFAoLmv4-2" target="EklKHTHSB251qFAoLmv4-24" edge="1">
          <mxGeometry relative="1" as="geometry">
            <Array as="points">
              <mxPoint x="334" y="230" />
              <mxPoint x="334" y="230" />
            </Array>
          </mxGeometry>
        </mxCell>
        <mxCell id="EklKHTHSB251qFAoLmv4-2" value="任务MQ处理真正提交" style="rounded=0;whiteSpace=wrap;html=1;" parent="1" vertex="1">
          <mxGeometry x="300" y="120" width="120" height="60" as="geometry" />
        </mxCell>
        <mxCell id="EklKHTHSB251qFAoLmv4-5" style="edgeStyle=orthogonalEdgeStyle;rounded=0;orthogonalLoop=1;jettySize=auto;html=1;entryX=0;entryY=0.5;entryDx=0;entryDy=0;" parent="1" source="EklKHTHSB251qFAoLmv4-4" target="EklKHTHSB251qFAoLmv4-1" edge="1">
          <mxGeometry relative="1" as="geometry" />
        </mxCell>
        <mxCell id="EklKHTHSB251qFAoLmv4-4" value="查询缴费明细" style="rounded=0;whiteSpace=wrap;html=1;" parent="1" vertex="1">
          <mxGeometry x="-220" y="120" width="120" height="60" as="geometry" />
        </mxCell>
        <mxCell id="EklKHTHSB251qFAoLmv4-9" value="返回 taskNumber" style="text;html=1;align=center;verticalAlign=middle;resizable=0;points=[];autosize=1;strokeColor=none;fillColor=none;" parent="1" vertex="1">
          <mxGeometry x="-100" y="170" width="110" height="20" as="geometry" />
        </mxCell>
        <mxCell id="EklKHTHSB251qFAoLmv4-13" value="" style="edgeStyle=orthogonalEdgeStyle;rounded=0;orthogonalLoop=1;jettySize=auto;html=1;" parent="1" source="EklKHTHSB251qFAoLmv4-10" target="EklKHTHSB251qFAoLmv4-12" edge="1">
          <mxGeometry relative="1" as="geometry" />
        </mxCell>
        <mxCell id="EklKHTHSB251qFAoLmv4-10" value="网关处理" style="whiteSpace=wrap;html=1;rounded=0;" parent="1" vertex="1">
          <mxGeometry x="500" y="120" width="120" height="60" as="geometry" />
        </mxCell>
        <mxCell id="EklKHTHSB251qFAoLmv4-19" style="edgeStyle=orthogonalEdgeStyle;rounded=0;orthogonalLoop=1;jettySize=auto;html=1;entryX=0.5;entryY=1;entryDx=0;entryDy=0;" parent="1" source="EklKHTHSB251qFAoLmv4-12" target="EklKHTHSB251qFAoLmv4-2" edge="1">
          <mxGeometry relative="1" as="geometry">
            <Array as="points">
              <mxPoint x="760" y="260" />
              <mxPoint x="360" y="260" />
            </Array>
          </mxGeometry>
        </mxCell>
        <mxCell id="EklKHTHSB251qFAoLmv4-12" value="客户端" style="whiteSpace=wrap;html=1;rounded=0;" parent="1" vertex="1">
          <mxGeometry x="700" y="120" width="120" height="60" as="geometry" />
        </mxCell>
        <mxCell id="EklKHTHSB251qFAoLmv4-14" value="转发" style="text;html=1;align=center;verticalAlign=middle;resizable=0;points=[];autosize=1;strokeColor=none;fillColor=none;" parent="1" vertex="1">
          <mxGeometry x="640" y="130" width="40" height="20" as="geometry" />
        </mxCell>
        <mxCell id="EklKHTHSB251qFAoLmv4-15" value="hspscore-Facade" style="text;html=1;align=center;verticalAlign=middle;resizable=0;points=[];autosize=1;strokeColor=none;fillColor=none;" parent="1" vertex="1">
          <mxGeometry x="15" y="90" width="110" height="20" as="geometry" />
        </mxCell>
        <mxCell id="EklKHTHSB251qFAoLmv4-16" value="hspscore-msg" style="text;html=1;align=center;verticalAlign=middle;resizable=0;points=[];autosize=1;strokeColor=none;fillColor=none;" parent="1" vertex="1">
          <mxGeometry x="315" y="90" width="90" height="20" as="geometry" />
        </mxCell>
        <mxCell id="EklKHTHSB251qFAoLmv4-17" value="hspsgateway" style="text;html=1;align=center;verticalAlign=middle;resizable=0;points=[];autosize=1;strokeColor=none;fillColor=none;" parent="1" vertex="1">
          <mxGeometry x="500" y="90" width="90" height="20" as="geometry" />
        </mxCell>
        <mxCell id="EklKHTHSB251qFAoLmv4-18" value="dpcore" style="text;html=1;align=center;verticalAlign=middle;resizable=0;points=[];autosize=1;strokeColor=none;fillColor=none;" parent="1" vertex="1">
          <mxGeometry x="730" y="90" width="50" height="20" as="geometry" />
        </mxCell>
        <mxCell id="EklKHTHSB251qFAoLmv4-20" value="MQ 完成消息返回缴费明细OSSUrl" style="text;html=1;align=center;verticalAlign=middle;resizable=0;points=[];autosize=1;strokeColor=none;fillColor=none;" parent="1" vertex="1">
          <mxGeometry x="430" y="240" width="200" height="20" as="geometry" />
        </mxCell>
        <mxCell id="EklKHTHSB251qFAoLmv4-23" value="MQ处理消息（获取ossurl的objectkey）" style="text;html=1;align=center;verticalAlign=middle;resizable=0;points=[];autosize=1;strokeColor=none;fillColor=none;" parent="1" vertex="1">
          <mxGeometry x="330" y="300" width="230" height="20" as="geometry" />
        </mxCell>
        <mxCell id="EklKHTHSB251qFAoLmv4-24" value="落入本地库&lt;span style=&quot;background-color: rgb(255 , 255 , 254) ; font-family: &amp;#34;menlo&amp;#34; , &amp;#34;monaco&amp;#34; , &amp;#34;courier new&amp;#34; , monospace&quot;&gt;hpc_business_task_detail&lt;/span&gt;" style="rounded=0;whiteSpace=wrap;html=1;" parent="1" vertex="1">
          <mxGeometry x="277" y="357" width="180" height="60" as="geometry" />
        </mxCell>
        <mxCell id="EklKHTHSB251qFAoLmv4-26" style="edgeStyle=orthogonalEdgeStyle;rounded=0;orthogonalLoop=1;jettySize=auto;html=1;entryX=0.344;entryY=0.992;entryDx=0;entryDy=0;entryPerimeter=0;" parent="1" source="EklKHTHSB251qFAoLmv4-25" target="EklKHTHSB251qFAoLmv4-24" edge="1">
          <mxGeometry relative="1" as="geometry">
            <mxPoint x="340" y="460" as="targetPoint" />
          </mxGeometry>
        </mxCell>
        <mxCell id="EklKHTHSB251qFAoLmv4-25" value="查询反馈结果" style="rounded=0;whiteSpace=wrap;html=1;" parent="1" vertex="1">
          <mxGeometry x="-220" y="500" width="120" height="60" as="geometry" />
        </mxCell>
        <mxCell id="EklKHTHSB251qFAoLmv4-27" value="通过lris配置确定需要返回的ObjectKey" style="text;html=1;align=center;verticalAlign=middle;resizable=0;points=[];autosize=1;strokeColor=none;fillColor=none;" parent="1" vertex="1">
          <mxGeometry x="19" y="511" width="213" height="18" as="geometry" />
        </mxCell>
        <mxCell id="EklKHTHSB251qFAoLmv4-28" value="获取ObjectKeyList" style="text;html=1;align=center;verticalAlign=middle;resizable=0;points=[];autosize=1;strokeColor=none;fillColor=none;" parent="1" vertex="1">
          <mxGeometry x="356" y="481" width="108" height="18" as="geometry" />
        </mxCell>
        <mxCell id="EklKHTHSB251qFAoLmv4-29" value="hrsscore" style="text;html=1;align=center;verticalAlign=middle;resizable=0;points=[];autosize=1;strokeColor=none;fillColor=none;" parent="1" vertex="1">
          <mxGeometry x="-210" y="90" width="60" height="20" as="geometry" />
        </mxCell>
      </root>
    </mxGraphModel>
  </diagram>
</mxfile>
